<svg xmlns="http://www.w3.org/2000/svg" xmlns:xlink="http://www.w3.org/1999/xlink" width="334" zoomAndPan="magnify" viewBox="0 0 250.5 374.999991" height="500" preserveAspectRatio="xMidYMid meet" version="1.0"><defs><clipPath id="ece13e8b99"><path d="M 0 0.375 L 250 0.375 L 250 374.625 L 0 374.625 Z M 0 0.375 " clip-rule="nonzero"/></clipPath></defs><g clip-path="url(#ece13e8b99)"><path fill="#252e05" d="M 62.722656 0.636719 C 64.554688 0.367188 66.742188 0.613281 68.574219 0.691406 C 77.480469 1.089844 83.957031 4.089844 91.960938 7.265625 C 95.472656 6.722656 98.472656 5.847656 101.808594 5.261719 C 111.90625 3.441406 122.179688 2.773438 132.429688 3.269531 C 140.867188 3.675781 149.410156 5.730469 157.671875 6.996094 C 158.546875 7.128906 163.976562 4.742188 165.28125 4.304688 C 168.390625 3.261719 171.804688 2.3125 175.03125 1.59375 C 197.414062 -4.070312 222.222656 14.8125 220.320312 38.335938 C 219.839844 42.796875 218.902344 45.5 220.4375 49.921875 C 228.398438 72.785156 243.914062 92.464844 249.152344 116.484375 C 251.132812 125.566406 251.046875 135.304688 246.175781 143.488281 C 244.683594 146.003906 242.960938 147.917969 241.398438 150.285156 C 241.761719 152.863281 241.703125 155.734375 242.144531 158.273438 C 244.195312 170.082031 243.914062 181.730469 243.988281 193.683594 C 244.058594 204.953125 242.90625 215.132812 239.679688 226.027344 C 237.777344 232.554688 234.851562 238.738281 231.011719 244.347656 C 224.183594 254.324219 212.347656 265.304688 207.984375 276.550781 C 197.347656 303.96875 197.386719 330.070312 178.289062 354.410156 C 176.125 356.707031 174.058594 358.9375 171.609375 360.945312 C 158.644531 371.5625 142.46875 375.109375 126.074219 375.050781 C 123.351562 375.039062 119.757812 375.101562 117.078125 374.792969 C 109.777344 373.941406 103.539062 373.277344 96.527344 370.894531 C 67.472656 361.015625 58.789062 335.785156 51.609375 308.769531 C 48.808594 298.230469 46.335938 286.222656 42.050781 276.367188 C 37.757812 266.492188 30.335938 258.300781 23.511719 250.242188 C 15.019531 240.210938 10.238281 228.917969 8.007812 216.058594 C 7.6875 213.605469 6.835938 210.828125 6.710938 208.386719 C 5.996094 194.355469 6.035156 180.121094 6.726562 166.089844 C 6.84375 163.65625 7.585938 160.882812 7.882812 158.433594 C 8.222656 155.625 8.519531 152.847656 8.808594 150.042969 C 5.878906 146.695312 2.957031 142.621094 1.5625 138.226562 C -5.730469 115.289062 12.523438 87.398438 22.03125 67.203125 C 25.101562 60.679688 28.832031 54.003906 30.410156 46.746094 C 30.941406 44.324219 29.851562 39.976562 29.679688 37.414062 C 29.117188 29.136719 31.839844 21.238281 37.277344 15.027344 C 43.929688 7.425781 52.550781 1.542969 62.722656 0.636719 Z M 62.722656 0.636719 " fill-opacity="1" fill-rule="nonzero"/></g><path fill="#7e9d0f" d="M 43.253906 30.597656 C 44.117188 27.789062 45.546875 25.417969 47.472656 23.214844 C 60.863281 7.878906 81.296875 16.507812 93.949219 27.539062 C 93.890625 26.722656 93.515625 24.605469 94.296875 24.144531 C 100 20.78125 109.550781 19.175781 116.109375 18.496094 C 119.421875 18.175781 122.75 18.023438 126.078125 18.03125 C 135.011719 18.015625 148.339844 19.851562 156.199219 24.550781 C 156.441406 24.691406 156.3125 26.242188 156.308594 26.640625 C 157.328125 26.414062 162.113281 22.558594 163.367188 21.726562 C 176.078125 13.292969 194.421875 11.035156 203.875 25.386719 C 204.996094 27.085938 205.878906 28.890625 206.8125 30.75 C 199.597656 30.816406 195.9375 31.796875 189.914062 36.042969 C 175.972656 45.878906 172.429688 55.722656 153.535156 55.355469 C 156.777344 57.882812 160.53125 60.777344 163.066406 63.996094 C 172.226562 75.632812 176.914062 93.796875 187.59375 104.238281 C 186.398438 97.925781 185.242188 93.722656 183.015625 87.703125 C 181.714844 84.1875 178.742188 77.222656 178.085938 73.867188 C 183.699219 78.355469 184.566406 82.96875 193.363281 81.871094 C 193.9375 81.800781 195.550781 81.449219 195.996094 81.4375 C 197.683594 82.257812 201.496094 81.699219 203.3125 81.050781 C 207.964844 79.378906 210.550781 76.863281 213.542969 73.101562 C 221.828125 84.007812 237.605469 114.996094 236.238281 129.636719 C 235.929688 132.769531 234.1875 135.851562 231.894531 137.789062 C 229.277344 140.003906 222.535156 140.621094 219.238281 139.652344 C 205.902344 135.738281 203.871094 137.328125 194.792969 148.703125 C 191.292969 146.902344 187.484375 145.515625 184.226562 143.226562 C 178.730469 139.367188 174.070312 134.917969 168.128906 131.613281 C 140.394531 116.167969 102.214844 117.398438 75.757812 135.082031 C 71.738281 137.773438 68.148438 141.21875 64.160156 143.96875 C 61.839844 145.601562 57.835938 147.378906 55.1875 148.628906 C 52.660156 144.894531 47.902344 139.117188 43.359375 137.824219 C 40.234375 136.933594 36.011719 138.476562 33.066406 139.097656 C -4.449219 147.03125 22.753906 95.855469 30.453125 82.628906 C 32.316406 79.433594 34.238281 75.980469 36.300781 73.382812 C 40.847656 78.390625 46.882812 83.429688 54.269531 81.558594 C 65.136719 82.882812 64.488281 80.71875 71.535156 74.425781 L 71.75 74.238281 C 71.085938 76.988281 68.898438 81.96875 67.78125 84.75 C 65.21875 91.113281 63.25 97.339844 62.242188 104.152344 C 72.496094 93.992188 77.246094 76.914062 85.554688 65.316406 C 87.992188 61.914062 92.542969 57.90625 95.925781 55.4375 C 76.597656 54.925781 73.644531 45.824219 59.070312 35.816406 C 52.410156 31.242188 50.664062 31.539062 43.253906 30.597656 Z M 43.253906 30.597656 " fill-opacity="1" fill-rule="nonzero"/><path fill="#252e05" d="M 95.179688 74.320312 C 104.109375 73.199219 108.25 86.988281 108.640625 93.578125 C 108.816406 96.527344 108.445312 99.878906 104.671875 98.628906 C 103.09375 97.1875 100.523438 93.15625 98.945312 91.285156 C 96.605469 88.546875 94.269531 86.039062 92.171875 83.097656 C 89.210938 78.953125 91.300781 76.609375 95.179688 74.320312 Z M 95.179688 74.320312 " fill-opacity="1" fill-rule="nonzero"/><path fill="#252e05" d="M 152 74.296875 C 156.148438 74.039062 157.613281 75.964844 159.082031 79.496094 C 157.582031 84.738281 154.644531 86.773438 151.289062 90.910156 C 149.617188 92.972656 148.027344 95.1875 146.476562 97.355469 C 145.246094 98.789062 142.773438 100.203125 141.820312 97.644531 C 140.355469 93.714844 142.171875 87.832031 143.460938 83.964844 C 144.949219 79.488281 147.753906 76.238281 152 74.296875 Z M 152 74.296875 " fill-opacity="1" fill-rule="nonzero"/><path fill="#7e9d0f" d="M 226.980469 157.828125 C 228.898438 159.957031 230.039062 186.3125 230.027344 190.988281 C 229.703125 201.984375 229.417969 215.117188 225.285156 225.394531 C 218.433594 241.992188 203.042969 252.671875 195.945312 269.367188 C 185.347656 294.308594 185.234375 326.132812 165.691406 346.601562 C 154.519531 358.304688 139.882812 359.96875 125.011719 360.472656 C 78.570312 362.042969 69.199219 326.125 60.257812 289.050781 C 58.488281 281.769531 56.222656 274.4375 53.085938 267.390625 C 46.046875 251.578125 31.039062 241.214844 24.824219 225.097656 C 20.527344 213.421875 20.132812 197.585938 20.226562 185.253906 C 20.433594 180.167969 21.042969 175.042969 21.175781 169.941406 C 21.285156 165.75 21.851562 161.800781 22.789062 157.71875 C 25.800781 159.722656 29.410156 162.207031 31.714844 165.097656 C 40.578125 176.214844 39.878906 194.558594 44.300781 207.878906 C 45.75 212.246094 49.003906 217.121094 51.339844 221.167969 C 55.886719 228.730469 59.472656 236.078125 62.285156 244.449219 C 70.023438 267.429688 67.925781 293.34375 80.949219 314.445312 C 90.484375 329.890625 106.316406 336.453125 123.941406 336.347656 C 135.582031 336.273438 144.046875 335.523438 154.324219 329.050781 C 171.800781 318.039062 177.351562 298.0625 180.40625 278.914062 C 182.226562 267.921875 184.277344 256.484375 187.320312 245.757812 C 189.664062 237.503906 193.519531 229.824219 197.949219 222.515625 C 199.367188 220.148438 203.957031 212.546875 204.761719 210.304688 C 207.898438 201.53125 208.980469 190.542969 211.105469 181.300781 C 213.804688 169.546875 216.8125 164.253906 226.980469 157.828125 Z M 226.980469 157.828125 " fill-opacity="1" fill-rule="nonzero"/><path fill="#dd5655" d="M 124.578125 257.804688 C 126.292969 253.375 126.878906 243.40625 127.617188 238.363281 C 128.628906 231.40625 126.601562 220.976562 133.886719 216.300781 C 139.902344 211.871094 152.734375 213.0625 156.523438 219.996094 C 160.363281 227.019531 155.238281 244.914062 153.386719 252.546875 C 150.617188 261.253906 150.058594 268.972656 144.296875 276.582031 C 128.667969 297.210938 105.488281 286.117188 99.773438 263.78125 C 96.652344 251.578125 92.902344 240.769531 92.234375 228.035156 C 91.710938 218.082031 96.414062 215.03125 105.339844 213.738281 C 109.089844 213.285156 114.410156 214.601562 117.222656 217.109375 C 123.90625 223.042969 121.648438 232.863281 122.609375 240.628906 C 123.335938 246.511719 124.101562 251.878906 124.578125 257.804688 Z M 124.578125 257.804688 " fill-opacity="1" fill-rule="nonzero"/><path fill="#fec506" d="M 193.207031 53.988281 C 196.804688 51.519531 200.0625 49.511719 204.109375 47.726562 C 204.492188 48.785156 204.902344 49.878906 205.234375 50.953125 C 208.390625 61.164062 205.953125 75.804688 195.996094 81.4375 C 195.550781 81.449219 193.9375 81.800781 193.363281 81.871094 C 184.566406 82.96875 183.699219 78.355469 178.085938 73.867188 L 175.003906 67.203125 C 177.105469 66.191406 180.296875 64.207031 181.964844 62.578125 C 182.722656 65.566406 184.042969 70.253906 186.832031 71.925781 C 187.773438 72.496094 188.902344 72.667969 189.96875 72.398438 C 191.5625 71.980469 192.804688 70.554688 193.484375 69.117188 C 195.90625 64 195.785156 58.9375 193.207031 53.988281 Z M 193.207031 53.988281 " fill-opacity="1" fill-rule="nonzero"/><path fill="#fec506" d="M 45.910156 47.894531 C 49.984375 49.898438 52.761719 51.347656 56.585938 53.777344 C 54.347656 56.976562 54.609375 60.710938 54.796875 64.433594 C 54.949219 67.796875 57.816406 74.277344 62.054688 72.503906 C 65.570312 71.03125 66.789062 66.007812 68.09375 62.746094 C 69.949219 64.261719 72.863281 66.277344 74.941406 67.445312 C 73.894531 69.460938 72.734375 72.136719 71.75 74.238281 L 71.535156 74.425781 C 64.488281 80.71875 65.136719 82.882812 54.269531 81.558594 C 42.832031 76.613281 41.265625 58 45.910156 47.894531 Z M 45.910156 47.894531 " fill-opacity="1" fill-rule="nonzero"/><path fill="#fdeec4" d="M 117.4375 136.65625 L 118.265625 136.628906 L 118.503906 136.914062 C 118.429688 138.828125 117.78125 141.464844 117.464844 143.421875 C 116.199219 151.179688 114.503906 159.523438 111.753906 166.90625 C 110.542969 165.191406 109.269531 162.941406 108.375 161.0625 C 105.289062 154.898438 103.554688 146.359375 101.683594 139.683594 C 105.910156 137.75 112.761719 137.003906 117.4375 136.65625 Z M 117.4375 136.65625 " fill-opacity="1" fill-rule="nonzero"/><path fill="#fdeec4" d="M 131.539062 136.804688 C 136.09375 136.878906 143.472656 137.839844 147.722656 139.644531 C 147.394531 140.671875 147.164062 141.714844 146.941406 142.769531 C 145.6875 148.667969 144.066406 154.304688 141.695312 159.859375 C 140.566406 162.328125 139.445312 164.203125 138.046875 166.488281 C 134.824219 156.855469 132.640625 146.902344 131.539062 136.804688 Z M 131.539062 136.804688 " fill-opacity="1" fill-rule="nonzero"/><path fill="#fdeec4" d="M 156.238281 142.792969 C 161.324219 144.160156 165.167969 146.425781 169.347656 149.550781 C 168.566406 156.148438 166.066406 162.761719 163.234375 168.742188 C 161.914062 171.359375 160.671875 173.164062 158.941406 175.519531 C 158.0625 171.671875 158.089844 168.820312 157.632812 165.035156 C 156.699219 157.324219 155.84375 150.585938 156.238281 142.792969 Z M 156.238281 142.792969 " fill-opacity="1" fill-rule="nonzero"/><path fill="#fdeec4" d="M 93.179688 142.816406 L 93.507812 143.136719 C 93.816406 145.4375 93.738281 148.617188 93.480469 150.957031 C 92.585938 159.015625 92.753906 167.375 90.363281 175.148438 C 88.949219 173.179688 87.828125 171.191406 86.726562 169.046875 C 83.171875 161.632812 82.085938 157.464844 80.253906 149.484375 C 84.535156 146.582031 88.238281 144.386719 93.179688 142.816406 Z M 93.179688 142.816406 " fill-opacity="1" fill-rule="nonzero"/><path fill="#fdeec4" d="M 176.84375 155.058594 C 177.636719 155.363281 180.667969 157.292969 181.714844 157.882812 C 184.300781 159.339844 186.289062 160.21875 188.996094 161.375 C 188.261719 163.660156 187.734375 166.605469 187.105469 169 C 185.828125 173.949219 184.066406 178.765625 181.851562 183.375 C 180.488281 186.128906 179.074219 188.109375 177.308594 190.582031 C 177.234375 186.085938 176.9375 181.46875 176.847656 176.929688 C 176.773438 169.640625 176.769531 162.347656 176.84375 155.058594 Z M 176.84375 155.058594 " fill-opacity="1" fill-rule="nonzero"/><path fill="#fdeec4" d="M 72.574219 155.230469 C 73.242188 156.296875 72.613281 187.632812 72.589844 190.5 C 70.578125 188.007812 69.535156 186.386719 67.953125 183.59375 C 64.25 176.066406 63.117188 169.039062 60.597656 161.308594 C 65.566406 159.507812 68.195312 158.246094 72.574219 155.230469 Z M 72.574219 155.230469 " fill-opacity="1" fill-rule="nonzero"/><path fill="#fdeec4" d="M 144.71875 294.769531 C 148.722656 299.453125 152.351562 308.089844 152.597656 314.488281 C 151.066406 316.015625 149.179688 317.300781 147.382812 318.492188 C 145.925781 319.347656 143.570312 320.613281 142 321.128906 C 141.503906 314.582031 142.015625 300.519531 144.71875 294.769531 Z M 144.71875 294.769531 " fill-opacity="1" fill-rule="nonzero"/><path fill="#fdeec4" d="M 105.066406 294.761719 C 108.308594 298.238281 108.007812 315.871094 107.558594 321.035156 L 102.816406 318.515625 C 100.28125 316.875 98.871094 315.863281 97 313.535156 C 98.042969 306.015625 100.894531 300.929688 105.066406 294.761719 Z M 105.066406 294.761719 " fill-opacity="1" fill-rule="nonzero"/><path fill="#fdeec4" d="M 90.074219 272.46875 L 90.414062 272.933594 C 90.765625 280.492188 90.917969 297.625 88.953125 304.292969 C 87.902344 302.929688 87.007812 301.546875 86.058594 300.113281 C 83.835938 296.496094 82.691406 293.332031 81.261719 289.402344 C 83.605469 282.203125 85.207031 278.527344 90.074219 272.46875 Z M 90.074219 272.46875 " fill-opacity="1" fill-rule="nonzero"/><path fill="#fdeec4" d="M 159.644531 272.886719 C 162.488281 275.046875 166.652344 283.179688 167.601562 286.894531 C 168.816406 291.652344 166.0625 296.226562 163.742188 300.265625 C 162.613281 302.0625 161.78125 303.117188 160.441406 304.78125 C 159.84375 301.832031 159.796875 298.726562 159.574219 295.734375 C 158.988281 287.929688 159.082031 280.703125 159.644531 272.886719 Z M 159.644531 272.886719 " fill-opacity="1" fill-rule="nonzero"/><path fill="#fdeec4" d="M 124.585938 302.644531 C 126.566406 303.800781 131.082031 320.242188 131.550781 323.207031 C 129.339844 323.589844 127.976562 323.800781 125.757812 323.839844 C 122.917969 323.875 121.164062 323.640625 118.339844 323.21875 C 118.722656 318.039062 120.523438 313.269531 122.332031 308.421875 C 123.078125 306.417969 124.039062 304.769531 124.585938 302.644531 Z M 124.585938 302.644531 " fill-opacity="1" fill-rule="nonzero"/><path fill="#fdeec4" d="M 80.019531 248.011719 L 80.414062 248.25 C 81.703125 250.855469 82.003906 268.242188 79.539062 270.15625 C 78.863281 270.054688 79.019531 270 78.4375 269.34375 C 72.640625 260.878906 76.164062 256.042969 80.019531 248.011719 Z M 80.019531 248.011719 " fill-opacity="1" fill-rule="nonzero"/><path fill="#fdeec4" d="M 169.402344 248.363281 C 171.183594 250.019531 173.394531 255.164062 174.050781 257.554688 C 175.445312 262.617188 174.460938 264.328125 172.121094 268.597656 L 170.421875 270.960938 C 168.203125 266.902344 168.230469 252.496094 169.402344 248.363281 Z M 169.402344 248.363281 " fill-opacity="1" fill-rule="nonzero"/></svg>